<svg id="Layer_1" data-name="Layer 1" xmlns="http://www.w3.org/2000/svg" viewBox="0 0 256 256"><path d="M60.8,165.4a29.4,29.4,0,0,0-7.4.9h-.1c0,.3.3.6.8.9a16,16,0,0,0,1.9,1.1l2.6.9,2.7.8,2.4.6,1.4.2h2.1a10,10,0,0,0,2.4-.4,12.3,12.3,0,0,0,2.3-.8,6.1,6.1,0,0,0,1.7-1.4,28.7,28.7,0,0,0-6.2-2.2A36,36,0,0,0,60.8,165.4Z" fill="#231f20"/><path d="M127.8,4A123.5,123.5,0,1,0,251.3,127.5,123.5,123.5,0,0,0,127.8,4Zm80.6,68.1v.3a8.2,8.2,0,0,1-.1,1.4l-.3,2c-.2.8-.2,1.4-.4,2.1a12.3,12.3,0,0,1-.2,1.3,7.6,7.6,0,0,0-.9,1.8l-.6,1.9-.6,1.9a10.7,10.7,0,0,1-.7,1.9,21.1,21.1,0,0,1-1.6,3,15.9,15.9,0,0,0-1.5,2.9l-19.4,27-.3.5c0,.1-.1.2-.2.3l-.3.2-.4.5-1.6,2.2-2,2.8-2.2,3.2c-.7,1-1.3,2.1-1.9,3.1s-1,2-1.3,2.9a6,6,0,0,0-.6,2.3c0,.3-.2.5-.2.7a1.4,1.4,0,0,1,.2.7h0c-.1,0-.2.1-.2.3s.1.4.2.4v9.9a4.4,4.4,0,0,1-.2,1c-.2.3-.2.7-.4,1.1s-.4.8-.5,1.2a3.4,3.4,0,0,0-.5,1.1v1.6c0,.1.2.2,0,.4s-.2.5-.4.8l-.7.8c-.1.2-.5.3-.5.4v.4s.7.2.8.4.8.3.8.4v2.7a18.6,18.6,0,0,1-.6,3.4c-.2,1.2-.5,2.3-.7,3.4s-.5,2.3-.7,3.4-.3,2.3-.3,3.5.1,4.1.3,6.1.6,4,1,6a44.8,44.8,0,0,0,2.1,5.5,24.8,24.8,0,0,0,3.3,5.1,3.6,3.6,0,0,1-1.2.8l-1.6.7-1.7.4a3.4,3.4,0,0,1-1.4.1h-.4l-1-.2-1.2-.3-1-.2h-.7l-.7-.3-.6-.5a.8.8,0,0,1-.3-.7c.1-1.2.1-2.6.1-3.9l-.3-4.1c-.1-1.4-.3-2.8-.5-4.2s-.4-2.7-.5-4-.1-.3-.2-.6l-.2-.6c0-1,.1-2.2.1-3.5s0-2.6-.1-3.9a26.3,26.3,0,0,0-.6-3.9,12.2,12.2,0,0,0-1.4-3.3,3.3,3.3,0,0,0-1.4,1.8c-.3.8-.5,1.6-.8,2.6a27,27,0,0,1-.4,2.8c-.2.9-.9,1.7-.9,2.3v7.3c0,2.8-.2,5.5-.1,8.1a71.8,71.8,0,0,0,.6,7.9c0,.1.1.2.4.4l.8.5.7.7a.7.7,0,0,1,.4.6c0,.3-.3.5-.8.8a7.5,7.5,0,0,1-1.8.8,10.4,10.4,0,0,1-2,.8l-1.2.5H152l-4.6-2.6c-.3-.1-.2-.3-.2-.4v-.6a27.9,27.9,0,0,1,0-2.9,28.1,28.1,0,0,0,.1-3,21.9,21.9,0,0,0-.3-3.6l-.6-3.7c-.2-1.2-.4-2.4-.5-3.6a23.4,23.4,0,0,1-.3-3.8,31.1,31.1,0,0,1,.1-3.2,21.9,21.9,0,0,1,.4-2.7,25.6,25.6,0,0,1,.5-2.7c.2-1,.4-2,.6-3.2s0-.3,0-.6a2.6,2.6,0,0,1-.1-.7,5.8,5.8,0,0,0-1.9.2l-1.8.5-1.8.6-1.9.5-1.3.2h-2l-1-.2h-6.9a43.5,43.5,0,0,0-5.1-.2H121a4,4,0,0,0-2.3.8,43.4,43.4,0,0,1,0,5.1c0,1.7-.1,3.3-.1,5l-.3,4.9c0,1.7-.1,3.4-.1,5.1V194c0,.5.6,1.1,1.1,1.6l1.3,1.7a8.8,8.8,0,0,1,1.2,1.7,3.7,3.7,0,0,1,.5,1.7v.4a9,9,0,0,1-4,.4c.1.5,0,.7-.2.8h-2.6a7.8,7.8,0,0,1-2.2-.3,3.7,3.7,0,0,1-1.8-.8,2.1,2.1,0,0,1-.7-1.8,4.9,4.9,0,0,1,.1-1.2l.3-1.3.3-1.3a5.7,5.7,0,0,0,.1-1.3,21.7,21.7,0,0,0-.2-3.7c-.2-1.2-.4-2.4-.7-3.5s-.5-2.6-.8-3.8a26.2,26.2,0,0,1-.7-3.8h-.4c-.2,0-.4.7-.5.9s-.2.5-.4.6a3.3,3.3,0,0,1-.3.6l-1.5,2.2a16.4,16.4,0,0,0-1.4,2.2,16.3,16.3,0,0,0-1.1,2.3,11.7,11.7,0,0,0-.4,2.7,4,4,0,0,0,.3,1.5,10.2,10.2,0,0,0,.8,1.5l.7,1.1a1.5,1.5,0,0,1,.3.6.8.8,0,0,1-.4.7l-1,.5-1.3.2H98.4a2.3,2.3,0,0,1-1-.4,2.7,2.7,0,0,1-.7-.8,5,5,0,0,1-.5-1.6,9.8,9.8,0,0,1-.5-1.6,4.1,4.1,0,0,1-.3-1.6,2.7,2.7,0,0,1,.4-1.4l.9-1.6,1-1.5a7,7,0,0,0,.8-1.4l2.4-5.8,2.4-5.7a1.8,1.8,0,0,1,.5-.7l.5-.7.4-.7a3.1,3.1,0,0,0,.2-.8c0-.4-.1-.6-.4-.7h-1.2l-8.7,2.4a2.2,2.2,0,0,1-1.3.5l-1.7.4a7.6,7.6,0,0,0-1.6.6,1,1,0,0,0-.6,1,2,2,0,0,0,.2.9l.7.6.8.6a1.9,1.9,0,0,1,.7.6l-.4.4-1.2-.9-1.4-.8-1.5-.6-1.4-.2a15.7,15.7,0,0,0-3.7.5l-3.9,1.1-4,1.1a14,14,0,0,1-4.1.5,16.8,16.8,0,0,1-3.3-.4c-1.5-.2-3-.6-4.8-1l-5.2-1.7a44.9,44.9,0,0,1-4.9-2.2,17.6,17.6,0,0,1-3.6-2.6,4.3,4.3,0,0,1-.3-6.1,6.7,6.7,0,0,1,2.7-1.6,12.8,12.8,0,0,1,3.4-.1,26.9,26.9,0,0,1,3.2.3h3.9c.2,0,.6-.4,1.2-.3a19.5,19.5,0,0,1,2.3.2l2.5.3,1.9.2a6,6,0,0,1,1.9.6l1.7.8,1.8.7a6.4,6.4,0,0,0,2,.3,8,8,0,0,0,3.8-1,24.2,24.2,0,0,0,4-2.5,27.9,27.9,0,0,0,3.8-3l3.2-2.6,1.8-1.2,1.8-1.1,1.7-1.2a7.9,7.9,0,0,0,1.4-1.7,37.8,37.8,0,0,0,2.6-4.3,24.3,24.3,0,0,1,2.6-4.4,4.9,4.9,0,0,1,1.3-1.2l1.5-1,1.6-.9,1.5-.9a28,28,0,0,0,3.5-2.5l3.4-2.8,3.2-3,3.4-2.8a22.2,22.2,0,0,1,3.7-2.1l3.8-1.8,2.4-1.2,2.4-1.3,2.5-1.1a7.7,7.7,0,0,1,2.6-.7l21.8-3.2a12.2,12.2,0,0,0,3.4-1.1,22,22,0,0,0,3.2-2.1l3.1-2.8c1-1.1,2-2.1,2.9-3.2l2.6-3.1,2.2-2.8,7.5-8.7.3-.2.5-.6a1.2,1.2,0,0,0,.5-.5l.3-.2,2-3.2.2-.2.4-.2.4-.2.2-.2.4-.4.3-.4a12.5,12.5,0,0,0,1.2-1.7l1.4-1.9,1.3-1.9.9-1.6a16.7,16.7,0,0,0,.8-2,17.2,17.2,0,0,0,.7-2.1l.7-2.1c.3-.7,1-1.4,1-2.1v-6a5.1,5.1,0,0,0-1-3,12.4,12.4,0,0,0-2.6-2.5,10.6,10.6,0,0,0-3.3-1.8,9.4,9.4,0,0,0-3.1-.6,26,26,0,0,0-5.6.6,11.5,11.5,0,0,0-5,2.6L178.3,62l-1.6,1.8L175,65.7a15.3,15.3,0,0,1-1.8,1.8l-1.7,1.3a4.1,4.1,0,0,1-1.8.5,1.6,1.6,0,0,1-1.1-.5,1.4,1.4,0,0,1-.5-1.1v-.4c0-.1.1-.2.1-.4s.1-.5.2-.8.1-.5.1-.7a1.3,1.3,0,0,0,.1-.5,3.8,3.8,0,0,0-.3-1.6,5,5,0,0,0-.5-1.3,6.7,6.7,0,0,1-.6-1.2,2.5,2.5,0,0,1-.2-1.2,1.1,1.1,0,0,0,.8-.3,1.5,1.5,0,0,0,.4-.6l.4-.7a2.8,2.8,0,0,1,.8-.6h2.8a1.3,1.3,0,0,0,.9-.4,2.2,2.2,0,0,1,.7-.6c.1-.1.1,0,.2,0h.1l.3.4a.5.5,0,0,0,.2.4c0-.2.1-.3.3-.4l.7-.3,1-.7,1.4-.8,1.3-.7,1-.7.6-.3,2-1.3,1.7-.6,1.9-.2h6.3l1.4.5,1.5.3,1.5.3,1.5.5a13.5,13.5,0,0,1,4.4,2.9,15.3,15.3,0,0,1,3.1,4.1,18.9,18.9,0,0,1,1.7,4.9,23.2,23.2,0,0,1,.5,5.3v2.2Z" fill="#231f20"/></svg>