<svg xmlns="http://www.w3.org/2000/svg"><symbol id="velociraptor" viewBox="0 0 256 256"><path fill="#231f20" d="M128 1a127 127 0 1 0 127 127A127.1 127.1 0 0 0 128 1zm109.8 115.9h-7.3c-3.1 0-6.1-.1-9.2-.4l-9.1-1-9-.9c-3.1-.3-6.1-.5-9.2-.5a128.5 128.5 0 0 0-16.3 1 77.2 77.2 0 0 0-15.8 3.7l-30.5 11a2.4 2.4 0 0 0-1.2 1.6 17.3 17.3 0 0 0-.8 2.7l-.6 2.9a8.5 8.5 0 0 1-.6 1.9 2.7 2.7 0 0 0 1.3 1.3l2.5 1.2 2.8 1.2 2.8 1.4a7.8 7.8 0 0 1 2.1 1.9 3.5 3.5 0 0 1 .8 2.4 1.7 1.7 0 0 1-.5 1.2 2.7 2.7 0 0 1-1.2.9l-1.6.8-1.6.7a4.3 4.3 0 0 0-1.2 1.1 2.5 2.5 0 0 0-.5 1.5 3.7 3.7 0 0 0 .8 2.5 7.4 7.4 0 0 0 1.9 1.6l2.4 1.3a7.2 7.2 0 0 1 2.1 1.8 14.8 14.8 0 0 1 2.1 3.4 22.9 22.9 0 0 1 1.2 3.7 23.3 23.3 0 0 1 .8 3.8c.2 1.3.1 2.7.3 4l1.3 1.3v7.1h.8l1.1.2.9.2.6.3a5.4 5.4 0 0 0 .1.8c0 .2-.1.5-.1 1a5.6 5.6 0 0 1-.4 1.2l-.6.9a1.1 1.1 0 0 1-.9.3h-5.2c-.2 0-.5-.5-1-.8l-1.5-.8-1.5-.8c-.5-.3-.9-.9-1.2-.9h-6.1a4.8 4.8 0 0 1 .6-2.9 4.4 4.4 0 0 1 1.7-1.6 6.5 6.5 0 0 1 2.1-.6l2.1-.4a3.8 3.8 0 0 0 1.6-.6 1.4 1.4 0 0 0 .7-1.3.8.8 0 0 0-.1-.4v-.3c-.2-.4-.4-1-.8-1.7l-1.3-2.5-1.5-2.4a10 10 0 0 0-1.6-1.8l-1.3-.8-1.8-1-1.8-1a3.3 3.3 0 0 1-1-1.1c-.3-.9-.6-1.8-.9-3a17.3 17.3 0 0 0-1.1-3.2 9 9 0 0 0-1.7-2.6 4.4 4.4 0 0 0-2.9-1 24.7 24.7 0 0 0-6 .8 28 28 0 0 0-5.7 2.2 29.8 29.8 0 0 0-5 3.5 24.4 24.4 0 0 0-3.9 4.6l-.4.2h-.2a.5.5 0 0 1-.2-.4c-.1-.1-.1-.4-.2-.6l-.2-.6a.4.4 0 0 0-.1-.3h-.3a1.6 1.6 0 0 0-1.1.5 4.4 4.4 0 0 0-.8 1.1l-.9 1.4a3.9 3.9 0 0 1-.8 1 5.6 5.6 0 0 1-.7-1.7v-1.6a13.6 13.6 0 0 1 .3-2.9l.9-2.8a27.7 27.7 0 0 0 1-2.6c.2-1 .4-2.7.4-2.7H94c0-1.7.2-1.8.6-2.4a6.5 6.5 0 0 1 1.7-1.6 6.7 6.7 0 0 1 2.1-.9l2.1-.3 3 .2 2.9.5 2.9.4a14.2 14.2 0 0 0 2.9.2h2.3a2.5 2.5 0 0 0-1.6-1.4 10.9 10.9 0 0 0-2.6-.4l-2.7-.2c-.9-.1-1.6.1-2.2-.2l-3.8-2.2h-.3a17.4 17.4 0 0 0-3.2-.1 10.8 10.8 0 0 1-3.1.2 7.3 7.3 0 0 1-3-.7l-2.7-1.4-2.6-1.3a5 5 0 0 0-2.9-.6v6h1.6l1-.4.9-.5a3.5 3.5 0 0 1 .9-.6l.6-.2v2.8l2-.7c0 .1.2.3.2.5a4.3 4.3 0 0 0 .1.5 5.6 5.6 0 0 1-1.3 3.9 22.6 22.6 0 0 1-3.2 2.9 29.2 29.2 0 0 0-4.6-1.3l-4.8-.6v-7.8l-1.7.5-2.1 1-1.9.7c-.5.4-.9.8-.9 1.2v6.9a9.3 9.3 0 0 0 2.9-.3l1.9-.6 1.2-.6a2.4 2.4 0 0 1 1.2-.3h.4l.3.7c.1.4.3.8.4 1.2a9.3 9.3 0 0 1 .4 1.3 8.4 8.4 0 0 1 .2 1 4.6 4.6 0 0 1-.4 1.9 6.7 6.7 0 0 1-1.1 1.8 3.7 3.7 0 0 1-1.5 1.3 3.3 3.3 0 0 1-1.9.6h-1l-3-.5-3.6-.7a10.8 10.8 0 0 1-3.3-1.3 2.5 2.5 0 0 1-1.4-2v-11.7l.9-.9a20.2 20.2 0 0 0 1.9-1.6l2.3-2.1a19.5 19.5 0 0 0 2.4-2.6 20.3 20.3 0 0 0 1.8-2.6 5.6 5.6 0 0 0 .8-2.6 3.9 3.9 0 0 0-1.2-2.8 15.5 15.5 0 0 0-2.8-2 23.3 23.3 0 0 0-3.3-1.4l-2.5-.9-1.3-9.1c-.2-.8-.3-1.7-.6-2.7a13.6 13.6 0 0 0-1.1-2.8 9.1 9.1 0 0 0-1.8-2.1 3.9 3.9 0 0 0-2.6-.9 13.8 13.8 0 0 0-3.7.5 13 13 0 0 0-3.2 1.5l-1.6 1-2.6 1.5-2.9 1.8-3 1.7-2.5 1.7c-.8.4-1.3 1.1-1.7 1.1h-1l-1.7-.2-2.1-.4a3.2 3.2 0 0 1-1.3-.8c-.5-.3-.4-.8-.4-1.3V119c0-.6-.2-.9.1-.9h1.5v-.4c.1-.2.1-.5.2-.8a2.8 2.8 0 0 0 .1-.9 1.1 1.1 0 0 0 .1-.5 6 6 0 0 0-.8-.8l-.9-.5a2.3 2.3 0 0 1-.7-.7 1.7 1.7 0 0 1-.3-1.2 2.7 2.7 0 0 1 .3-1.2 3.9 3.9 0 0 1 .6-1.1c.3-.4.3-.7.6-.9l.9-.3v.7c0 .5.4 1 .5 1.5a1.2 1.2 0 0 0 1.2.7 1.5 1.5 0 0 0 1.1-.4 5.8 5.8 0 0 0 1-1.2 7.6 7.6 0 0 0 .6-1.6c.2-.4.3.3.3-1.4H21.7a1.4 1.4 0 0 1-.9-.5 3.3 3.3 0 0 1-1-.6l-1-.8a1.8 1.8 0 0 1-.4-1.1 4.3 4.3 0 0 1 1.1-3.1 6.8 6.8 0 0 1 2.6-1.8 11.9 11.9 0 0 1 3.2-1l2.9-.9 2.2-.9 3.3-1.5 3.3-1.7a14.1 14.1 0 0 1 2.2-1.1h13.6a7.1 7.1 0 0 1 3.9 1 12.6 12.6 0 0 1 3.1 2.5 20.4 20.4 0 0 1 2.5 3.3l2.3 3.3a20.2 20.2 0 0 0 2.3 2.6 3.9 3.9 0 0 0 2.5 1 1.2 1.2 0 0 0 .8-.4c.1-.3.4-.4.8-.4a4 4 0 0 1 1.5.3l1.5.7 1.6.7a4 4 0 0 0 1.5.3 27.5 27.5 0 0 0 4.1-.2l4.1-.4 4.1-.5a28.2 28.2 0 0 1 4.1-.2 56.4 56.4 0 0 1 7.3.4 36.9 36.9 0 0 1 7.2 1.5l5.1 2 5.1 2.2a31.6 31.6 0 0 0 5.2 1.7 20 20 0 0 0 5.4.7h2.6l12.9-2.7 12.8-2.3 12.9-1.5c4.3-.4 8.7-.6 13.1-.6h8.8a32.9 32.9 0 0 1 5.1 1l36.3 7.2H245c-.8 0-1.8 1-3.1 1.4a27.5 27.5 0 0 1-4.1.2z"/></symbol><symbol id="brachiosaurus" viewBox="0 0 256 256"><path fill="#231f20" d="M60.8 165.4a29.4 29.4 0 0 0-7.4.9h-.1c0 .3.3.6.8.9a16 16 0 0 0 1.9 1.1l2.6.9 2.7.8 2.4.6 1.4.2h2.1a10 10 0 0 0 2.4-.4 12.3 12.3 0 0 0 2.3-.8 6.1 6.1 0 0 0 1.7-1.4 28.7 28.7 0 0 0-6.2-2.2 36 36 0 0 0-6.6-.6z"/><path fill="#231f20" d="M127.8 4a123.5 123.5 0 1 0 123.5 123.5A123.5 123.5 0 0 0 127.8 4zm80.6 68.1v.3a8.2 8.2 0 0 1-.1 1.4l-.3 2c-.2.8-.2 1.4-.4 2.1a12.3 12.3 0 0 1-.2 1.3 7.6 7.6 0 0 0-.9 1.8l-.6 1.9-.6 1.9a10.7 10.7 0 0 1-.7 1.9 21.1 21.1 0 0 1-1.6 3 15.9 15.9 0 0 0-1.5 2.9l-19.4 27-.3.5c0 .1-.1.2-.2.3l-.3.2-.4.5-1.6 2.2-2 2.8-2.2 3.2c-.7 1-1.3 2.1-1.9 3.1s-1 2-1.3 2.9a6 6 0 0 0-.6 2.3c0 .3-.2.5-.2.7a1.4 1.4 0 0 1 .2.7c-.1 0-.2.1-.2.3s.1.4.2.4v9.9a4.4 4.4 0 0 1-.2 1c-.2.3-.2.7-.4 1.1s-.4.8-.5 1.2a3.4 3.4 0 0 0-.5 1.1v1.6c0 .1.2.2 0 .4s-.2.5-.4.8l-.7.8c-.1.2-.5.3-.5.4v.4s.7.2.8.4.8.3.8.4v2.7a18.6 18.6 0 0 1-.6 3.4c-.2 1.2-.5 2.3-.7 3.4s-.5 2.3-.7 3.4-.3 2.3-.3 3.5.1 4.1.3 6.1.6 4 1 6a44.8 44.8 0 0 0 2.1 5.5 24.8 24.8 0 0 0 3.3 5.1 3.6 3.6 0 0 1-1.2.8l-1.6.7-1.7.4a3.4 3.4 0 0 1-1.4.1h-.4l-1-.2-1.2-.3-1-.2h-.7l-.7-.3-.6-.5a.8.8 0 0 1-.3-.7c.1-1.2.1-2.6.1-3.9l-.3-4.1c-.1-1.4-.3-2.8-.5-4.2s-.4-2.7-.5-4-.1-.3-.2-.6l-.2-.6c0-1 .1-2.2.1-3.5s0-2.6-.1-3.9a26.3 26.3 0 0 0-.6-3.9 12.2 12.2 0 0 0-1.4-3.3 3.3 3.3 0 0 0-1.4 1.8c-.3.8-.5 1.6-.8 2.6a27 27 0 0 1-.4 2.8c-.2.9-.9 1.7-.9 2.3v7.3c0 2.8-.2 5.5-.1 8.1a71.8 71.8 0 0 0 .6 7.9c0 .1.1.2.4.4l.8.5.7.7a.7.7 0 0 1 .4.6c0 .3-.3.5-.8.8a7.5 7.5 0 0 1-1.8.8 10.4 10.4 0 0 1-2 .8l-1.2.5h-.2l-4.6-2.6c-.3-.1-.2-.3-.2-.4v-.6a27.9 27.9 0 0 1 0-2.9 28.1 28.1 0 0 0 .1-3 21.9 21.9 0 0 0-.3-3.6l-.6-3.7c-.2-1.2-.4-2.4-.5-3.6a23.4 23.4 0 0 1-.3-3.8 31.1 31.1 0 0 1 .1-3.2 21.9 21.9 0 0 1 .4-2.7 25.6 25.6 0 0 1 .5-2.7c.2-1 .4-2 .6-3.2s0-.3 0-.6a2.6 2.6 0 0 1-.1-.7 5.8 5.8 0 0 0-1.9.2l-1.8.5-1.8.6-1.9.5-1.3.2h-2l-1-.2h-6.9a43.5 43.5 0 0 0-5.1-.2H121a4 4 0 0 0-2.3.8 43.4 43.4 0 0 1 0 5.1c0 1.7-.1 3.3-.1 5l-.3 4.9c0 1.7-.1 3.4-.1 5.1v4.8c0 .5.6 1.1 1.1 1.6l1.3 1.7a8.8 8.8 0 0 1 1.2 1.7 3.7 3.7 0 0 1 .5 1.7v.4a9 9 0 0 1-4 .4c.1.5 0 .7-.2.8h-2.6a7.8 7.8 0 0 1-2.2-.3 3.7 3.7 0 0 1-1.8-.8 2.1 2.1 0 0 1-.7-1.8 4.9 4.9 0 0 1 .1-1.2l.3-1.3.3-1.3a5.7 5.7 0 0 0 .1-1.3 21.7 21.7 0 0 0-.2-3.7c-.2-1.2-.4-2.4-.7-3.5s-.5-2.6-.8-3.8a26.2 26.2 0 0 1-.7-3.8h-.4c-.2 0-.4.7-.5.9s-.2.5-.4.6a3.3 3.3 0 0 1-.3.6l-1.5 2.2a16.4 16.4 0 0 0-1.4 2.2 16.3 16.3 0 0 0-1.1 2.3 11.7 11.7 0 0 0-.4 2.7 4 4 0 0 0 .3 1.5 10.2 10.2 0 0 0 .8 1.5l.7 1.1a1.5 1.5 0 0 1 .3.6.8.8 0 0 1-.4.7l-1 .5-1.3.2h-4.2a2.3 2.3 0 0 1-1-.4 2.7 2.7 0 0 1-.7-.8 5 5 0 0 1-.5-1.6 9.8 9.8 0 0 1-.5-1.6 4.1 4.1 0 0 1-.3-1.6 2.7 2.7 0 0 1 .4-1.4l.9-1.6 1-1.5a7 7 0 0 0 .8-1.4l2.4-5.8 2.4-5.7a1.8 1.8 0 0 1 .5-.7l.5-.7.4-.7a3.1 3.1 0 0 0 .2-.8c0-.4-.1-.6-.4-.7h-1.2l-8.7 2.4a2.2 2.2 0 0 1-1.3.5l-1.7.4a7.6 7.6 0 0 0-1.6.6 1 1 0 0 0-.6 1 2 2 0 0 0 .2.9l.7.6.8.6a1.9 1.9 0 0 1 .7.6l-.4.4-1.2-.9-1.4-.8-1.5-.6-1.4-.2a15.7 15.7 0 0 0-3.7.5l-3.9 1.1-4 1.1a14 14 0 0 1-4.1.5 16.8 16.8 0 0 1-3.3-.4c-1.5-.2-3-.6-4.8-1l-5.2-1.7a44.9 44.9 0 0 1-4.9-2.2 17.6 17.6 0 0 1-3.6-2.6 4.3 4.3 0 0 1-.3-6.1 6.7 6.7 0 0 1 2.7-1.6 12.8 12.8 0 0 1 3.4-.1 26.9 26.9 0 0 1 3.2.3h3.9c.2 0 .6-.4 1.2-.3a19.5 19.5 0 0 1 2.3.2l2.5.3 1.9.2a6 6 0 0 1 1.9.6l1.7.8 1.8.7a6.4 6.4 0 0 0 2 .3 8 8 0 0 0 3.8-1 24.2 24.2 0 0 0 4-2.5 27.9 27.9 0 0 0 3.8-3l3.2-2.6 1.8-1.2 1.8-1.1 1.7-1.2a7.9 7.9 0 0 0 1.4-1.7 37.8 37.8 0 0 0 2.6-4.3 24.3 24.3 0 0 1 2.6-4.4 4.9 4.9 0 0 1 1.3-1.2l1.5-1 1.6-.9 1.5-.9a28 28 0 0 0 3.5-2.5l3.4-2.8 3.2-3 3.4-2.8a22.2 22.2 0 0 1 3.7-2.1l3.8-1.8 2.4-1.2 2.4-1.3 2.5-1.1a7.7 7.7 0 0 1 2.6-.7l21.8-3.2a12.2 12.2 0 0 0 3.4-1.1 22 22 0 0 0 3.2-2.1l3.1-2.8c1-1.1 2-2.1 2.9-3.2l2.6-3.1 2.2-2.8 7.5-8.7.3-.2.5-.6a1.2 1.2 0 0 0 .5-.5l.3-.2 2-3.2.2-.2.4-.2.4-.2.2-.2.4-.4.3-.4a12.5 12.5 0 0 0 1.2-1.7l1.4-1.9 1.3-1.9.9-1.6a16.7 16.7 0 0 0 .8-2 17.2 17.2 0 0 0 .7-2.1l.7-2.1c.3-.7 1-1.4 1-2.1v-6a5.1 5.1 0 0 0-1-3 12.4 12.4 0 0 0-2.6-2.5 10.6 10.6 0 0 0-3.3-1.8 9.4 9.4 0 0 0-3.1-.6 26 26 0 0 0-5.6.6 11.5 11.5 0 0 0-5 2.6l-1.4 1.5-1.6 1.8-1.7 1.9a15.3 15.3 0 0 1-1.8 1.8l-1.7 1.3a4.1 4.1 0 0 1-1.8.5 1.6 1.6 0 0 1-1.1-.5 1.4 1.4 0 0 1-.5-1.1v-.4c0-.1.1-.2.1-.4s.1-.5.2-.8.1-.5.1-.7a1.3 1.3 0 0 0 .1-.5 3.8 3.8 0 0 0-.3-1.6 5 5 0 0 0-.5-1.3 6.7 6.7 0 0 1-.6-1.2 2.5 2.5 0 0 1-.2-1.2 1.1 1.1 0 0 0 .8-.3 1.5 1.5 0 0 0 .4-.6l.4-.7a2.8 2.8 0 0 1 .8-.6h2.8a1.3 1.3 0 0 0 .9-.4 2.2 2.2 0 0 1 .7-.6c.1-.1.1 0 .2 0h.1l.3.4a.5.5 0 0 0 .2.4c0-.2.1-.3.3-.4l.7-.3 1-.7 1.4-.8 1.3-.7 1-.7.6-.3 2-1.3 1.7-.6 1.9-.2h6.3l1.4.5 1.5.3 1.5.3 1.5.5a13.5 13.5 0 0 1 4.4 2.9 15.3 15.3 0 0 1 3.1 4.1 18.9 18.9 0 0 1 1.7 4.9 23.2 23.2 0 0 1 .5 5.3v2.2z"/></symbol><symbol id="micropachycephalosaurus" viewBox="0 0 256 256"><path fill="#231f20" d="M132.6 150.3c-.2 0-.4.2-.4.6-.4 0-.5.2-.5.5s.1.6.5.6.4-.2.4-.6c.4 0 .6-.1.6-.5a.5.5 0 0 0-.6-.6zm1.5-.7a2.2 2.2 0 0 0-.9.7h.3a2 2 0 0 0 1.1-.3 1.8 1.8 0 0 0 .9-.8h-.3a1.5 1.5 0 0 0-1.1.4zm3-2.6c-.3 0-.4.2-.4.6h-.1c-.3 0-.5.1-.5.5h-.1c-.3 0-.5.2-.5.6s.2.5.5.5.5-.1.5-.5h.1c.3 0 .4-.2.4-.6h.1a.5.5 0 0 0 .5-.5c0-.4-.2-.6-.5-.6zm22.9-5.8a17.4 17.4 0 0 1-1.2 1.4 1.7 1.7 0 0 0 .8 1l1.1.2a1.9 1.9 0 0 0 1.4-.5 4 4 0 0 0 1-1.2 10 10 0 0 0 .8-1.4c.2-.5.4-1.2.5-1.2H161c-.2 0-.5 1.1-1 1.7z"/><path fill="#231f20" d="M128.2 2a125.5 125.5 0 1 0 125.5 125.5A125.5 125.5 0 0 0 128.2 2zm94.1 74.5a7.6 7.6 0 0 1-1.6.3h-3.6l-5.2 1.2a20.4 20.4 0 0 0-3.6 1.6 9.8 9.8 0 0 0-2.4 2.1 13.8 13.8 0 0 0-1.7 2.9 24.5 24.5 0 0 0-1.5 3.9c-.5 1.4-1.1 3.1-1.7 5s-.7 2.3-1.1 3.4-.8 2.1-1.3 3.1-.9 2-1.4 3.1l-1.7 3.2a39.9 39.9 0 0 1-2.7 4c-.9 1.2-1.9 2.5-2.9 3.6l-3.1 3.6c-1 1.1-2 2.4-3 3.7a11.6 11.6 0 0 0-1.4 2.7l-.9 2.5a10.2 10.2 0 0 1-1.4 2.2 5.5 5.5 0 0 1-2.4 1.5l-1.3.6-2 .7-2.1.6-1.3.4a3 3 0 0 1 .2 2 2 2 0 0 1-.9.9l-1.2.6a2 2 0 0 0-.9.9l-2.2 6.7a3.1 3.1 0 0 1-1 1.5 7.5 7.5 0 0 1-1.8.8 12.3 12.3 0 0 1-2 .2 10.3 10.3 0 0 1-1.8-.1h-1.9c-.3-.1-.4-.3-.4-.8s0-.3.1-.4l.2-.3.2-.3a.4.4 0 0 0 .1-.3v-.2a15 15 0 0 0-3.4 1.6l-3.3 2-3.3 2.2-3.3 1.9-.9.5-1.1.5-1 .8a1.3 1.3 0 0 0-.4 1v.6l1.8 1.6 1.9 1.7 2 1.6 2.1 1.2a7.5 7.5 0 0 0 1.8.7l1.9.5 1.9.7a5.1 5.1 0 0 1 1.6.9 5.3 5.3 0 0 1 1.3 1.3l1.1 1.5 1.1 1.5a6.1 6.1 0 0 0 1.5 1.2 3.4 3.4 0 0 0 1.7.6l2 .7a5.2 5.2 0 0 1 1.8 1 1.9 1.9 0 0 1 .7 1.6v.3a.4.4 0 0 0-.1.3l-5.5 1.1-1.1.4-1.2.2h-.5l-1.1-.6-1.8-1-1.6-1-1.1-.8-.2-.2-.3-.5-.3-.5-.3-.5-2.2-4.4-1.1-.5-1.8-.7-2.1-.9-2.1-1-1.8-.7-1.1-.6-2.7-1.5a18.3 18.3 0 0 1-2.6-2.1 10.5 10.5 0 0 1-2-2.7 7.1 7.1 0 0 1-1-3.1l-.6.2-.6.4-.8.6-1.7 1.2-2.1 1.4-2.1 1.3-1.7 1.1-1 .5-5.9 3.5a22.2 22.2 0 0 0-4.5 3.4 16.5 16.5 0 0 0-3.5 4.3c-.9 1.7-.8 3.9-2.4 6.6v1.5a10.1 10.1 0 0 0 1.1 4.4 11.3 11.3 0 0 0 2.1 2.6 9.1 9.1 0 0 0 2.6 1.3l2.6 1a4.4 4.4 0 0 1 1.9 1 5.3 5.3 0 0 1 .8 2h-13.1c-.1 0-.1-.3-.2-.4a.4.4 0 0 0-.4-.2l-.5-.2c-.2-.1-.4-.1-.6-.3a2.9 2.9 0 0 1-1.2-1.5 7.9 7.9 0 0 1-.5-2.2c0-.7.2-1.5.2-2.3s.3-1.4.3-2v-1.4a4.7 4.7 0 0 1 .3-1.8c.2-.8.3-1.6.5-2.6s.5-2 .8-3.1.5-2.2.8-3.1.5-1.9.6-2.7.4-1.3.5-1.7.4-1.4.6-2a11.8 11.8 0 0 1 1-1.9 14.1 14.1 0 0 0 4.4-2.5 19.9 19.9 0 0 0 3.2-3.3l2.9-3.3a14.5 14.5 0 0 1 3.4-3.1 6 6 0 0 1 1.4-.7l2.1-.8 2.2-.9 2.2-1.1a10.3 10.3 0 0 0 1.5-1.4 2 2 0 0 0 .6-1.5V141a1.7 1.7 0 0 0-.6-1.2l-.8-.3-1.1-.5-1.2-.6-.8-.3-2-1.2-2.6-1.8a25.6 25.6 0 0 0-2.5-1.6 3 3 0 0 0-1.7-.5h-7.8c-5.9 0-11.7-.1-17.5.1s-11.5.2-17.4.2c-4.3 0-8.6-.2-12.7-.4a99 99 0 0 1-12.2-1.4 79.2 79.2 0 0 1-11.9-2.8 78.1 78.1 0 0 1-11.6-5L23 123l-1.6-1a5.3 5.3 0 0 1-1.3-1.3 2.4 2.4 0 0 1-.5-1.6 9.5 9.5 0 0 1 2.1.4l2.3.9 2.2 1 1.5.6 4.6 1.7 5 1.4 5 1 4.8.3h26.2l2.6-.3 3.3-.6 3.6-.6 3.4-.6 2.6-.5 6.8-1.4a68.6 68.6 0 0 0 7.3-1.6c2.4-.6 4.8-1.2 7.1-2a56.9 56.9 0 0 0 6.6-2.8l3.8-1.7a24.3 24.3 0 0 1 3.7-1.6 29.7 29.7 0 0 1 3.9-1.3 25.9 25.9 0 0 1 4.2-.9l.9-.2h3.6l1-.2 1.9-.3 3.3-.8 4-.9 4-.9c1.2-.2 2.3-.9 3.2-1.1s1.6-.7 1.9-.7h6.5c2.7 0 5.3.5 7.8.7s5.1.5 7.8.5a9.4 9.4 0 0 0 4.9-1.2 18.3 18.3 0 0 0 4.5-3.5 23.7 23.7 0 0 0 3.8-4.9 43.7 43.7 0 0 0 3.2-5.5 55.3 55.3 0 0 0 2.6-5.6c.7-1.8 1.3-3.3 1.7-4.7s.8-2.3 1.1-3.4.7-2.2 1-3.1a15.7 15.7 0 0 1 1.2-2.6 8.6 8.6 0 0 1 1.8-2 8.7 8.7 0 0 1 2.5-1.5 10.7 10.7 0 0 1 3.8-.8h3c.8 1.6 1.8.9 3 1.3s2.3 1 3.5 1.5a11.9 11.9 0 0 1 2.9 1.8 2.7 2.7 0 0 1 1.2 2.1 2 2 0 0 1-.4 1.4 3.1 3.1 0 0 1-1.1.6z"/></symbol></svg>