<svg id="Layer_1" data-name="Layer 1" xmlns="http://www.w3.org/2000/svg" viewBox="0 0 256 256"><path d="M132.6,150.3c-.2,0-.4.2-.4.6h0c-.4,0-.5.2-.5.5s.1.6.5.6.4-.2.4-.6h0c.4,0,.6-.1.6-.5A.5.5,0,0,0,132.6,150.3Z" fill="#231f20"/><path d="M134.1,149.6a2.2,2.2,0,0,0-.9.7h.3a2,2,0,0,0,1.1-.3,1.8,1.8,0,0,0,.9-.8h-.3A1.5,1.5,0,0,0,134.1,149.6Z" fill="#231f20"/><path d="M137.1,147c-.3,0-.4.2-.4.6h-.1c-.3,0-.5.1-.5.5H136c-.3,0-.5.2-.5.6s.2.5.5.5.5-.1.5-.5h.1c.3,0,.4-.2.4-.6h.1a.5.5,0,0,0,.5-.5C137.6,147.2,137.4,147,137.1,147Z" fill="#231f20"/><path d="M160,141.2a17.4,17.4,0,0,1-1.2,1.4,1.7,1.7,0,0,0,.8,1l1.1.2a1.9,1.9,0,0,0,1.4-.5,4,4,0,0,0,1-1.2,10,10,0,0,0,.8-1.4c.2-.5.4-1.2.5-1.2H161C160.8,139.5,160.5,140.6,160,141.2Z" fill="#231f20"/><path d="M128.2,2A125.5,125.5,0,1,0,253.7,127.5,125.5,125.5,0,0,0,128.2,2Zm94.1,74.5a7.6,7.6,0,0,1-1.6.3h-3.6l-5.2,1.2a20.4,20.4,0,0,0-3.6,1.6,9.8,9.8,0,0,0-2.4,2.1,13.8,13.8,0,0,0-1.7,2.9,24.5,24.5,0,0,0-1.5,3.9c-.5,1.4-1.1,3.1-1.7,5s-.7,2.3-1.1,3.4-.8,2.1-1.3,3.1-.9,2-1.4,3.1l-1.7,3.2a39.9,39.9,0,0,1-2.7,4c-.9,1.2-1.9,2.5-2.9,3.6l-3.1,3.6c-1,1.1-2,2.4-3,3.7a11.6,11.6,0,0,0-1.4,2.7l-.9,2.5a10.2,10.2,0,0,1-1.4,2.2,5.5,5.5,0,0,1-2.4,1.5l-1.3.6-2,.7-2.1.6-1.3.4a3,3,0,0,1,.2,2,2,2,0,0,1-.9.9l-1.2.6a2,2,0,0,0-.9.9l-2.2,6.7a3.1,3.1,0,0,1-1,1.5,7.5,7.5,0,0,1-1.8.8,12.3,12.3,0,0,1-2,.2,10.3,10.3,0,0,1-1.8-.1h-1.9c-.3-.1-.4-.3-.4-.8s0-.3.1-.4l.2-.3.2-.3a.4.4,0,0,0,.1-.3v-.2h0a15,15,0,0,0-3.4,1.6l-3.3,2-3.3,2.2-3.3,1.9-.9.5-1.1.5-1,.8a1.3,1.3,0,0,0-.4,1v.6l1.8,1.6,1.9,1.7,2,1.6,2.1,1.2a7.5,7.5,0,0,0,1.8.7l1.9.5,1.9.7a5.1,5.1,0,0,1,1.6.9,5.3,5.3,0,0,1,1.3,1.3l1.1,1.5,1.1,1.5a6.1,6.1,0,0,0,1.5,1.2,3.4,3.4,0,0,0,1.7.6l2,.7a5.2,5.2,0,0,1,1.8,1,1.9,1.9,0,0,1,.7,1.6v.3a.4.4,0,0,0-.1.3l-5.5,1.1-1.1.4-1.2.2h-.5l-1.1-.6-1.8-1-1.6-1-1.1-.8-.2-.2-.3-.5-.3-.5-.3-.5-2.2-4.4-1.1-.5-1.8-.7-2.1-.9-2.1-1L141,162l-1.1-.6-2.7-1.5a18.3,18.3,0,0,1-2.6-2.1,10.5,10.5,0,0,1-2-2.7,7.1,7.1,0,0,1-1-3.1l-.6.2-.6.4-.8.6-1.7,1.2-2.1,1.4-2.1,1.3-1.7,1.1-1,.5-5.9,3.5a22.2,22.2,0,0,0-4.5,3.4,16.5,16.5,0,0,0-3.5,4.3c-.9,1.7-.8,3.9-2.4,6.6V178a10.1,10.1,0,0,0,1.1,4.4,11.3,11.3,0,0,0,2.1,2.6,9.1,9.1,0,0,0,2.6,1.3l2.6,1a4.4,4.4,0,0,1,1.9,1,5.3,5.3,0,0,1,.8,2H102.7c-.1,0-.1-.3-.2-.4a.4.4,0,0,0-.4-.2l-.5-.2c-.2-.1-.4-.1-.6-.3a2.9,2.9,0,0,1-1.2-1.5,7.9,7.9,0,0,1-.5-2.2c0-.7.2-1.5.2-2.3s.3-1.4.3-2v-1.4a4.7,4.7,0,0,1,.3-1.8c.2-.8.3-1.6.5-2.6s.5-2,.8-3.1.5-2.2.8-3.1.5-1.9.6-2.7.4-1.3.5-1.7.4-1.4.6-2a11.8,11.8,0,0,1,1-1.9,14.1,14.1,0,0,0,4.4-2.5,19.9,19.9,0,0,0,3.2-3.3l2.9-3.3a14.5,14.5,0,0,1,3.4-3.1,6,6,0,0,1,1.4-.7l2.1-.8,2.2-.9,2.2-1.1a10.3,10.3,0,0,0,1.5-1.4,2,2,0,0,0,.6-1.5V141a1.7,1.7,0,0,0-.6-1.2l-.8-.3-1.1-.5-1.2-.6-.8-.3-2-1.2-2.6-1.8a25.6,25.6,0,0,0-2.5-1.6,3,3,0,0,0-1.7-.5h-7.8c-5.9,0-11.7-.1-17.5.1s-11.5.2-17.4.2c-4.3,0-8.6-.2-12.7-.4a99,99,0,0,1-12.2-1.4A79.2,79.2,0,0,1,36,128.7a78.1,78.1,0,0,1-11.6-5L23,123l-1.6-1a5.3,5.3,0,0,1-1.3-1.3,2.4,2.4,0,0,1-.5-1.6,9.5,9.5,0,0,1,2.1.4l2.3.9,2.2,1,1.5.6,4.6,1.7,5,1.4,5,1,4.8.3H73.3l2.6-.3,3.3-.6,3.6-.6,3.4-.6,2.6-.5,6.8-1.4a68.6,68.6,0,0,0,7.3-1.6c2.4-.6,4.8-1.2,7.1-2a56.9,56.9,0,0,0,6.6-2.8l3.8-1.7a24.3,24.3,0,0,1,3.7-1.6,29.7,29.7,0,0,1,3.9-1.3,25.9,25.9,0,0,1,4.2-.9l.9-.2h3.6l1-.2,1.9-.3,3.3-.8,4-.9,4-.9c1.2-.2,2.3-.9,3.2-1.1s1.6-.7,1.9-.7h6.5c2.7,0,5.3.5,7.8.7s5.1.5,7.8.5a9.4,9.4,0,0,0,4.9-1.2,18.3,18.3,0,0,0,4.5-3.5,23.7,23.7,0,0,0,3.8-4.9,43.7,43.7,0,0,0,3.2-5.5,55.3,55.3,0,0,0,2.6-5.6c.7-1.8,1.3-3.3,1.7-4.7s.8-2.3,1.1-3.4.7-2.2,1-3.1a15.7,15.7,0,0,1,1.2-2.6,8.6,8.6,0,0,1,1.8-2,8.7,8.7,0,0,1,2.5-1.5,10.7,10.7,0,0,1,3.8-.8h3c.8,1.6,1.8.9,3,1.3s2.3,1,3.5,1.5a11.9,11.9,0,0,1,2.9,1.8,2.7,2.7,0,0,1,1.2,2.1,2,2,0,0,1-.4,1.4A3.1,3.1,0,0,1,222.3,76.5Z" fill="#231f20"/></svg>